<svg width="37" height="37" viewBox="0 0 37 37" fill="none" xmlns="http://www.w3.org/2000/svg">
<g clip-path="url(#clip0_21_11)">
<path fill-rule="evenodd" clip-rule="evenodd" d="M17.8701 3.72335C18.0997 3.59079 18.3602 3.521 18.6253 3.521C18.8905 3.521 19.1509 3.59079 19.3805 3.72335L22.4014 5.46788C22.7455 5.6696 22.9958 5.99923 23.0977 6.38483C23.1997 6.77043 23.145 7.18071 22.9455 7.52612C22.7461 7.87153 22.4182 8.12404 22.0332 8.22855C21.6483 8.33305 21.2377 8.28106 20.891 8.08392L20.1357 7.64741V9.56262C20.1357 9.96321 19.9766 10.3474 19.6934 10.6306C19.4101 10.9139 19.0259 11.073 18.6253 11.073C18.2247 11.073 17.8406 10.9139 17.5573 10.6306C17.274 10.3474 17.1149 9.96321 17.1149 9.56262V7.64741L16.3597 8.08392C16.013 8.28106 15.6024 8.33305 15.2174 8.22855C14.8325 8.12404 14.5046 7.87153 14.3051 7.52612C14.1057 7.18071 14.051 6.77043 14.1529 6.38483C14.2549 5.99923 14.5052 5.6696 14.8493 5.46788L17.8701 3.72335ZM11.182 9.32851C11.3823 9.67542 11.4366 10.0877 11.3329 10.4746C11.2292 10.8615 10.9761 11.1914 10.6292 11.3917L9.87398 11.8282L11.5324 12.7859C11.7056 12.8843 11.8576 13.016 11.9796 13.1735C12.1016 13.3309 12.1913 13.5109 12.2435 13.7031C12.2957 13.8954 12.3094 14.096 12.2837 14.2936C12.258 14.4911 12.1935 14.6816 12.0939 14.8541C11.9943 15.0266 11.8616 15.1777 11.7034 15.2987C11.5451 15.4197 11.3645 15.5082 11.1719 15.5591C10.9794 15.61 10.7786 15.6224 10.5813 15.5954C10.3839 15.5684 10.1938 15.5026 10.022 15.4019L8.36356 14.4443V15.3158C8.36356 15.7164 8.20443 16.1006 7.92117 16.3838C7.63791 16.6671 7.25373 16.8262 6.85314 16.8262C6.45256 16.8262 6.06838 16.6671 5.78512 16.3838C5.50186 16.1006 5.34273 15.7164 5.34273 15.3158V11.8282C5.343 11.5634 5.41292 11.3032 5.54547 11.0739C5.67803 10.8446 5.86855 10.6542 6.09794 10.5217L9.11877 8.77721C9.46568 8.57692 9.87794 8.52264 10.2649 8.62632C10.6518 8.72999 10.9817 8.98312 11.182 9.33002V9.32851ZM26.0687 9.32851C26.269 8.98161 26.5989 8.72848 26.9858 8.62481C27.3727 8.52113 27.785 8.57541 28.1319 8.7757L31.1527 10.5202C31.3823 10.6528 31.573 10.8435 31.7056 11.0731C31.8381 11.3027 31.9079 11.5631 31.9079 11.8282V15.3173C31.9079 15.7179 31.7488 16.1021 31.4655 16.3853C31.1823 16.6686 30.7981 16.8277 30.3975 16.8277C29.9969 16.8277 29.6128 16.6686 29.3295 16.3853C29.0462 16.1021 28.8871 15.7179 28.8871 15.3173V14.4443L27.2287 15.4019C26.8819 15.599 26.4713 15.651 26.0864 15.5465C25.7015 15.442 25.3735 15.1895 25.1741 14.8441C24.9747 14.4987 24.9199 14.0884 25.0219 13.7028C25.1238 13.3172 25.3742 12.9876 25.7183 12.7859L27.3767 11.8282L26.6215 11.3917C26.2746 11.1914 26.0214 10.8615 25.9178 10.4746C25.8141 10.0877 25.8684 9.67542 26.0687 9.32851ZM13.3932 15.6043C13.5935 15.2574 13.9234 15.0043 14.3104 14.9006C14.6973 14.7969 15.1096 14.8512 15.4565 15.0515L18.6253 16.8806L21.7942 15.0515C22.1409 14.8543 22.5515 14.8024 22.9365 14.9069C23.3214 15.0114 23.6493 15.2639 23.8488 15.6093C24.0482 15.9547 24.1029 16.365 24.001 16.7506C23.899 17.1362 23.6487 17.4658 23.3046 17.6675L20.1357 19.4966V23.1564C20.1357 23.557 19.9766 23.9411 19.6934 24.2244C19.4101 24.5077 19.0259 24.6668 18.6253 24.6668C18.2247 24.6668 17.8406 24.5077 17.5573 24.2244C17.274 23.9411 17.1149 23.557 17.1149 23.1564V19.4966L13.9461 17.6675C13.5992 17.4672 13.346 17.1373 13.2424 16.7504C13.1387 16.3635 13.193 15.9512 13.3932 15.6043ZM6.85314 20.4225C7.25373 20.4225 7.63791 20.5816 7.92117 20.8649C8.20443 21.1482 8.36356 21.5323 8.36356 21.9329V22.806L10.022 21.8483C10.3687 21.6512 10.7794 21.5992 11.1643 21.7037C11.5492 21.8082 11.8772 22.0607 12.0766 22.4062C12.276 22.7516 12.3307 23.1618 12.2288 23.5474C12.1268 23.933 11.8765 24.2627 11.5324 24.4644L9.87398 25.422L10.6292 25.8585C10.8023 25.957 10.9543 26.0887 11.0764 26.2461C11.1984 26.4035 11.2881 26.5836 11.3403 26.7758C11.3925 26.968 11.4061 27.1687 11.3805 27.3662C11.3548 27.5637 11.2903 27.7543 11.1907 27.9268C11.0911 28.0993 10.9584 28.2504 10.8001 28.3714C10.6419 28.4924 10.4613 28.5809 10.2687 28.6318C10.0761 28.6827 9.8754 28.695 9.67804 28.668C9.48068 28.641 9.29061 28.5753 9.11877 28.4745L6.09794 26.73C5.86833 26.5974 5.67766 26.4068 5.54509 26.1772C5.41253 25.9476 5.34273 25.6871 5.34273 25.422V21.9329C5.34273 21.5323 5.50186 21.1482 5.78512 20.8649C6.06838 20.5816 6.45256 20.4225 6.85314 20.4225ZM30.3975 20.4225C30.7981 20.4225 31.1823 20.5816 31.4655 20.8649C31.7488 21.1482 31.9079 21.5323 31.9079 21.9329V25.422C31.9079 25.6871 31.8381 25.9476 31.7056 26.1772C31.573 26.4068 31.3823 26.5974 31.1527 26.73L28.1319 28.4745C27.9601 28.5753 27.77 28.641 27.5726 28.668C27.3753 28.695 27.1745 28.6827 26.9819 28.6318C26.7894 28.5809 26.6088 28.4924 26.4505 28.3714C26.2923 28.2504 26.1596 28.0993 26.06 27.9268C25.9604 27.7543 25.8959 27.5637 25.8702 27.3662C25.8445 27.1687 25.8582 26.968 25.9104 26.7758C25.9626 26.5836 26.0522 26.4035 26.1743 26.2461C26.2963 26.0887 26.4483 25.957 26.6215 25.8585L27.3767 25.422L25.7183 24.4644C25.5451 24.3659 25.3931 24.2342 25.2711 24.0768C25.149 23.9193 25.0593 23.7393 25.0071 23.5471C24.9549 23.3549 24.9413 23.1542 24.967 22.9567C24.9926 22.7591 25.0571 22.5686 25.1567 22.3961C25.2563 22.2236 25.3891 22.0725 25.5473 21.9515C25.7055 21.8305 25.8861 21.742 26.0787 21.6911C26.2713 21.6402 26.472 21.6279 26.6694 21.6549C26.8668 21.6819 27.0568 21.7476 27.2287 21.8483L28.8871 22.806V21.9344C28.8871 21.5339 29.0462 21.1497 29.3295 20.8664C29.6128 20.5832 29.9969 20.424 30.3975 20.424V20.4225ZM18.6253 26.1772C19.0259 26.1772 19.4101 26.3363 19.6934 26.6196C19.9766 26.9028 20.1357 27.287 20.1357 27.6876V29.6028L20.891 29.1663C21.0628 29.0656 21.2529 28.9998 21.4502 28.9728C21.6476 28.9459 21.8483 28.9582 22.0409 29.0091C22.2335 29.06 22.4141 29.1485 22.5723 29.2695C22.7306 29.3905 22.8633 29.5416 22.9629 29.7141C23.0625 29.8866 23.127 30.0771 23.1527 30.2746C23.1783 30.4722 23.1647 30.6728 23.1125 30.8651C23.0603 31.0573 22.9706 31.2373 22.8486 31.3947C22.7265 31.5522 22.5745 31.6839 22.4014 31.7824L19.3805 33.5269C19.1509 33.6595 18.8905 33.7292 18.6253 33.7292C18.3602 33.7292 18.0997 33.6595 17.8701 33.5269L14.8493 31.7824C14.6761 31.6839 14.5241 31.5522 14.4021 31.3947C14.2801 31.2373 14.1904 31.0573 14.1382 30.8651C14.086 30.6728 14.0723 30.4722 14.098 30.2746C14.1237 30.0771 14.1882 29.8866 14.2878 29.7141C14.3874 29.5416 14.5201 29.3905 14.6783 29.2695C14.8366 29.1485 15.0172 29.06 15.2098 29.0091C15.4023 28.9582 15.6031 28.9459 15.8004 28.9728C15.9978 28.9998 16.1879 29.0656 16.3597 29.1663L17.1149 29.6028V27.6876C17.1149 27.287 17.274 26.9028 17.5573 26.6196C17.8406 26.3363 18.2247 26.1772 18.6253 26.1772Z" fill="#4D4D4D"/>
</g>
<defs>
<clipPath id="clip0_21_11">
<rect width="36.25" height="36.25" fill="white" transform="translate(0.500336 0.500122)"/>
</clipPath>
</defs>
</svg>
