<svg width="942" height="422" viewBox="0 0 942 422" fill="none" xmlns="http://www.w3.org/2000/svg">
<path d="M2.9255 345.306C9.28008 367.467 28.3337 384.927 57.5093 397.482C86.6805 410.036 125.898 417.651 172.427 420.159C265.478 425.175 387.654 409.757 516.886 372.7C646.119 335.643 757.9 283.975 834.154 230.412C872.284 203.629 901.507 176.388 919.593 150.284C937.682 124.175 944.588 99.2715 938.233 77.1104C931.879 54.9494 912.825 37.4891 883.649 24.9337C854.478 12.3802 815.26 4.76459 768.732 2.25659C675.68 -2.75914 553.505 12.6591 424.272 49.716C295.039 86.773 183.258 138.441 107.004 192.004C68.875 218.787 39.652 246.028 21.5657 272.132C3.47678 298.241 -3.42907 323.145 2.9255 345.306Z" stroke="url(#paint0_linear_71_105)"/>
<defs>
<linearGradient id="paint0_linear_71_105" x1="424.192" y1="49.2189" x2="517.082" y2="373.164" gradientUnits="userSpaceOnUse">
<stop stop-opacity="0"/>
<stop offset="1" stop-color="white"/>
</linearGradient>
</defs>
</svg>
