<svg width="190" height="78" viewBox="0 0 190 78" fill="none" xmlns="http://www.w3.org/2000/svg">
<path d="M0.00012207 17.52C0.00012207 7.84397 7.8441 0 17.5201 0V36.5V54.75V63.875V64.5769V73H0.00012207V17.52Z" fill="white"/>
<path d="M21.3164 1.34104C21.3164 0.600403 21.9168 0 22.6574 0H30.3684C35.3677 0 39.4204 4.05272 39.4204 9.052C39.4204 14.0513 35.3677 18.104 30.3684 18.104H22.6574C21.9168 18.104 21.3164 17.5036 21.3164 16.763V1.34104Z" fill="white"/>
<path d="M21.3164 34.3662C21.3164 29.4155 25.4185 25.4021 30.3693 25.4021C35.3191 25.4021 39.4204 29.4147 39.4204 34.3645V34.6316C39.4204 39.5328 35.403 43.5061 30.5018 43.5061C25.4539 43.5061 21.3164 39.414 21.3164 34.3662Z" fill="white"/>
<path d="M20.9001 73L29.7921 49.816H36.9561L45.8481 73H38.7921L36.8481 68.068H29.8641L27.9561 73H20.9001ZM30.7641 63.208H35.9481L33.3561 56.404L30.7641 63.208ZM55.056 73.36C53.496 73.36 52.02 73.24 50.628 73C49.236 72.736 48.048 72.376 47.064 71.92V66.34C48.144 66.844 49.344 67.252 50.664 67.564C51.984 67.876 53.22 68.032 54.372 68.032C55.572 68.032 56.472 67.936 57.072 67.744C57.696 67.528 58.008 67.06 58.008 66.34C58.008 65.836 57.828 65.44 57.468 65.152C57.132 64.864 56.592 64.6 55.848 64.36C55.128 64.12 54.18 63.82 53.004 63.46C51.444 62.956 50.208 62.404 49.296 61.804C48.384 61.204 47.724 60.472 47.316 59.608C46.932 58.744 46.74 57.688 46.74 56.44C46.74 54.16 47.544 52.432 49.152 51.256C50.784 50.056 53.196 49.456 56.388 49.456C57.66 49.456 58.968 49.564 60.312 49.78C61.68 49.996 62.784 50.236 63.624 50.5V56.116C62.496 55.66 61.416 55.336 60.384 55.144C59.352 54.952 58.38 54.856 57.468 54.856C56.412 54.856 55.512 54.94 54.768 55.108C54.024 55.276 53.652 55.708 53.652 56.404C53.652 57.004 53.964 57.448 54.588 57.736C55.236 58 56.376 58.348 58.008 58.78C59.904 59.284 61.344 59.896 62.328 60.616C63.336 61.336 64.02 62.176 64.38 63.136C64.74 64.072 64.92 65.14 64.92 66.34C64.92 68.452 64.104 70.156 62.472 71.452C60.84 72.724 58.368 73.36 55.056 73.36ZM72.5047 73V54.856H65.9887V49.816H85.7887V54.856H79.2727V73H72.5047ZM87.5732 73V49.816H94.3412V67.816H104.781V73H87.5732ZM105.873 73L114.765 49.816H121.929L130.821 73H123.765L121.821 68.068H114.837L112.929 73H105.873ZM115.737 63.208H120.921L118.329 56.404L115.737 63.208ZM133.347 73V49.816H139.107L147.855 62.092V49.816H154.623V73H148.827L140.115 60.76V73H133.347ZM157.851 73V49.816H175.419V55H164.619V58.78H174.087V64.036H164.619V67.816H175.419V73H157.851Z" fill="url(#paint0_linear_123_113)"/>
<defs>
<linearGradient id="paint0_linear_123_113" x1="20.0001" y1="55.5" x2="190" y2="55.5" gradientUnits="userSpaceOnUse">
<stop offset="0.352922" stop-color="white"/>
<stop offset="1" stop-color="white" stop-opacity="0"/>
</linearGradient>
</defs>
</svg>
