<svg width="15" height="26" viewBox="0 0 15 26" fill="none" xmlns="http://www.w3.org/2000/svg">
<path d="M0 6.24C0 2.79374 2.79374 0 6.24 0V13V19.5V22.75V23V26H0V6.24Z" fill="white"/>
<path d="M7.59229 0.47763C7.59229 0.213842 7.80613 0 8.06991 0H10.8163C12.5969 0 14.0403 1.44343 14.0403 3.224C14.0403 5.00457 12.5969 6.448 10.8163 6.448H8.06992C7.80613 6.448 7.59229 6.23416 7.59229 5.97037V0.47763Z" fill="white"/>
<path d="M7.59229 12.2407C7.59229 10.4774 9.05332 9.04797 10.8166 9.04797C12.5795 9.04797 14.0403 10.4771 14.0403 12.2401V12.3352C14.0403 14.0808 12.6094 15.496 10.8638 15.496C9.06593 15.496 7.59229 14.0385 7.59229 12.2407Z" fill="white"/>
</svg>
