<svg width="67" height="32" viewBox="0 0 67 32" fill="none" xmlns="http://www.w3.org/2000/svg">
<path d="M0 6.24C0 2.79374 2.79374 0 6.24 0V13V19.5V22.75V23V26H0V6.24Z" fill="white"/>
<path d="M7.59229 0.47763C7.59229 0.213842 7.80613 0 8.06991 0H10.8163C12.5969 0 14.0403 1.44343 14.0403 3.224C14.0403 5.00457 12.5969 6.448 10.8163 6.448H8.06992C7.80613 6.448 7.59229 6.23416 7.59229 5.97037V0.47763Z" fill="white"/>
<path d="M7.59229 12.2407C7.59229 10.4774 9.05332 9.04797 10.8166 9.04797C12.5795 9.04797 14.0403 10.4771 14.0403 12.2401V12.3352C14.0403 14.0808 12.6094 15.496 10.8638 15.496C9.06593 15.496 7.59229 14.0385 7.59229 12.2407Z" fill="white"/>
<path d="M6.35 26L9.808 16.984H12.594L16.052 26H13.308L12.552 24.082H9.836L9.094 26H6.35ZM10.186 22.192H12.202L11.194 19.546L10.186 22.192ZM19.6328 26.14C19.0262 26.14 18.4522 26.0933 17.9108 26C17.3695 25.8973 16.9075 25.7573 16.5248 25.58V23.41C16.9448 23.606 17.4115 23.7647 17.9248 23.886C18.4382 24.0073 18.9188 24.068 19.3668 24.068C19.8335 24.068 20.1835 24.0307 20.4168 23.956C20.6595 23.872 20.7808 23.69 20.7808 23.41C20.7808 23.214 20.7108 23.06 20.5708 22.948C20.4402 22.836 20.2302 22.7333 19.9408 22.64C19.6608 22.5467 19.2922 22.43 18.8348 22.29C18.2282 22.094 17.7475 21.8793 17.3928 21.646C17.0382 21.4127 16.7815 21.128 16.6228 20.792C16.4735 20.456 16.3988 20.0453 16.3988 19.56C16.3988 18.6733 16.7115 18.0013 17.3368 17.544C17.9715 17.0773 18.9095 16.844 20.1508 16.844C20.6455 16.844 21.1542 16.886 21.6768 16.97C22.2088 17.054 22.6382 17.1473 22.9648 17.25V19.434C22.5262 19.2567 22.1062 19.1307 21.7048 19.056C21.3035 18.9813 20.9255 18.944 20.5708 18.944C20.1602 18.944 19.8102 18.9767 19.5208 19.042C19.2315 19.1073 19.0868 19.2753 19.0868 19.546C19.0868 19.7793 19.2082 19.952 19.4508 20.064C19.7028 20.1667 20.1462 20.302 20.7808 20.47C21.5182 20.666 22.0782 20.904 22.4608 21.184C22.8528 21.464 23.1188 21.7907 23.2588 22.164C23.3988 22.528 23.4688 22.9433 23.4688 23.41C23.4688 24.2313 23.1515 24.894 22.5168 25.398C21.8822 25.8927 20.9208 26.14 19.6328 26.14ZM26.4185 26V18.944H23.8845V16.984H31.5845V18.944H29.0505V26H26.4185ZM32.2784 26V16.984H34.9104V23.984H38.9704V26H32.2784ZM39.3949 26L42.8529 16.984H45.6389L49.0969 26H46.3529L45.5969 24.082H42.8809L42.1389 26H39.3949ZM43.2309 22.192H45.2469L44.2389 19.546L43.2309 22.192ZM50.0792 26V16.984H52.3192L55.7212 21.758V16.984H58.3532V26H56.0992L52.7112 21.24V26H50.0792ZM59.6085 26V16.984H66.4405V19H62.2405V20.47H65.9225V22.514H62.2405V23.984H66.4405V26H59.6085Z" fill="url(#paint0_linear_123_154)"/>
<defs>
<linearGradient id="paint0_linear_123_154" x1="6" y1="21.5" x2="67" y2="21.5" gradientUnits="userSpaceOnUse">
<stop offset="0.352922" stop-color="white"/>
<stop offset="1" stop-color="white" stop-opacity="0"/>
</linearGradient>
</defs>
</svg>
